PathFileType	4	(X/Y/Z)	D:\TRACE\v60_Jaco2_6-2-23\BothDRS_Motion2_8-v60.trc
DataRate	CameraRate	NumFrames	NumMarkers	Units	OrigDataRate	OrigDataStartFrame	OrigNumFrames
100.00	100.00	      31	9	mm	100.00	1876	      7500
Frame#	Time	front left toe			Front right toe			aft left toe			aft right toe			Arm			FL body			FR body			AL Body			AR Body			
		X1	Y1	Z1	X2	Y2	Z2	X3	Y3	Z3	X4	Y4	Z4	X5	Y5	Z5	X6	Y6	Z6	X7	Y7	Z7	X8	Y8	Z8	X9	Y9	Z9	

1876	18.750	-172.22498	161.30971	-196.24733	221.38007	24.81209	-269.26190	-48.19060	0.50072	420.20914	289.55603	137.66162	365.76422	-11.78631	1210.54297	-557.22876	-83.97137	592.66431	-343.06271	74.44156	594.19891	-370.21170	71.98557	525.46002	587.62372	222.14372	520.02209	561.12073	
1877	18.760	-173.83856	157.79233	-195.22791	220.41748	24.25548	-269.25943	-49.86727	1.43180	419.91885	287.12143	134.02188	367.89413	-11.80659	1208.66248	-559.17480	-84.87782	592.00909	-343.55496	73.70185	593.56073	-371.10297	69.08599	526.46686	587.32410	227.34618	523.19098	564.39990	
1878	18.770	-174.78783	153.21088	-194.42754	219.36552	23.61057	-269.56866	-51.01233	2.16120	419.40805	285.87576	129.95270	370.21030	-11.64557	1206.86682	-561.28857	-85.16808	591.18115	-344.12979	72.92087	592.54126	-370.61432	66.82433	528.11755	587.70044	222.73238	524.26520	564.49469	
1879	18.780	-175.35794	147.41864	-194.32918	218.27258	23.07346	-269.69833	-52.49790	3.01271	419.01144	281.45773	124.14616	371.94849	-11.41989	1205.56506	-563.62720	-85.98920	590.64465	-344.66153	72.21188	591.77625	-370.72751	64.04115	529.34137	587.47650	221.69102	525.51324	564.69708	
1880	18.790	-176.22816	140.64252	-194.46091	217.48657	22.70872	-269.78775	-53.44984	3.74075	418.73376	279.24448	118.56628	374.20242	-10.73836	1204.25391	-565.20428	-87.05865	589.72504	-345.36227	72.62752	590.70618	-370.13116	61.40306	531.14972	587.41376	217.00340	526.61273	565.20251	
1881	18.800	-176.47310	132.46419	-194.76450	216.08344	22.08718	-270.12317	-54.93832	4.51940	418.41064	276.08347	112.06534	376.54648	-10.20479	1203.22070	-566.86945	-87.48539	588.74347	-345.79791	70.63013	589.69415	-370.81732	57.94913	532.19287	587.47424	213.78116	527.72137	565.15991	
1882	18.810	-177.21109	124.03873	-195.46355	215.44141	21.41778	-270.00607	-56.32513	5.18400	418.08218	272.51913	104.44521	378.89114	-9.67213	1202.26672	-568.36462	-87.96561	587.80786	-346.41504	70.86327	588.61115	-370.39972	54.62876	533.00177	587.20056	210.85300	528.76880	565.44971	
1883	18.820	-178.09178	115.49073	-196.49486	214.05630	20.51706	-270.43863	-58.24194	6.46474	417.79221	268.39456	95.75930	380.85760	-9.50758	1201.05823	-569.97028	-88.60872	586.96423	-347.30377	69.61723	587.78589	-371.29111	51.92777	534.54114	586.97858	207.39294	529.60608	565.21899	
1884	18.830	-179.05898	105.95215	-197.75946	213.30205	20.08695	-270.49420	-58.22929	6.16098	417.61728	264.21396	86.34052	382.92712	-9.67974	1199.76611	-571.42444	-88.90604	586.55145	-347.84631	69.26656	586.99915	-370.40109	48.00369	535.28064	586.51660	204.10373	530.12274	564.86224	
1885	18.840	-180.03098	95.91083	-198.80016	212.40572	19.49865	-270.60269	-59.22021	6.67454	417.26804	257.91037	74.70417	384.67795	-9.45794	1198.65393	-573.02661	-89.75487	585.69568	-348.89404	69.23360	586.40271	-372.28940	44.69537	536.04596	586.38947	200.57597	530.77747	565.21832	
1886	18.850	-181.01105	86.03102	-199.73813	211.43954	18.77473	-270.72464	-60.95812	7.77368	416.83893	253.64447	64.25305	386.25061	-9.49201	1197.40051	-574.68219	-90.07296	585.30804	-349.50284	68.98440	585.60828	-372.14325	41.02461	536.86536	586.13116	197.25308	531.46539	565.25586	
1887	18.860	-181.89325	78.33609	-200.79071	210.54175	18.14867	-270.99197	-61.93636	8.38880	416.33118	249.12839	54.85756	387.28860	-8.78766	1196.03833	-576.25616	-90.59011	584.13794	-350.17755	67.94800	584.97003	-372.93344	37.83698	537.14636	585.86493	193.41710	531.67310	565.41260	
1888	18.870	-183.15224	71.35299	-202.23994	209.67462	17.44586	-271.11298	-63.23382	9.04830	415.86487	244.24089	45.68864	386.99603	-8.58573	1194.88745	-577.68976	-91.45310	583.81116	-351.13126	67.67796	584.02240	-372.81415	34.34857	537.71924	585.67273	189.88210	532.26123	565.58557	
1889	18.880	-185.62746	64.04010	-203.36795	208.25204	16.50727	-271.25327	-64.36993	9.73199	415.49384	239.62204	37.55203	386.65601	-7.89255	1193.96899	-579.15149	-91.88445	582.89490	-351.89178	67.01015	583.20386	-373.48965	30.12046	538.33527	585.03302	186.15562	532.42499	565.49744	
1890	18.890	-188.59348	56.48799	-204.39058	207.53592	16.08116	-271.29819	-65.68828	10.43390	415.14450	235.32567	30.09212	386.16553	-7.00535	1193.17639	-580.17993	-92.88573	582.50616	-352.83640	66.41058	582.36389	-373.61508	26.82792	538.99048	584.77148	182.74188	532.99323	565.54211	
1891	18.900	-192.18510	49.85952	-205.36620	206.89700	15.62354	-271.52295	-66.55016	10.99604	414.85303	231.76413	23.81985	386.14078	-6.46824	1192.19690	-581.62372	-93.42714	581.63898	-353.54950	65.58384	581.46643	-373.87122	23.23479	539.48303	584.41150	178.94940	532.99939	565.40472	
1892	18.910	-195.68755	44.06424	-206.33031	206.00229	15.16388	-271.67273	-67.84190	11.69019	414.32666	228.10490	18.77325	384.93747	-5.83253	1191.56116	-582.68353	-94.55769	581.20966	-354.51596	64.53450	580.47479	-373.95596	19.06086	539.76599	583.55396	174.96193	533.10638	565.33917	
1893	18.920	-199.42667	38.03643	-207.66020	204.90021	14.47798	-271.69012	-68.93434	12.14608	414.03094	227.92029	20.42812	382.31885	-5.04626	1190.37732	-583.98877	-95.23147	580.38879	-355.27390	63.28079	579.78473	-374.51303	15.10318	540.23309	583.09979	171.84566	533.60693	565.29395	
1894	18.930	-203.09427	31.57941	-208.94415	203.89101	13.74935	-271.65771	-69.93942	12.89823	413.77277	226.74683	19.15167	383.15698	-4.34473	1189.56531	-585.24597	-96.34348	579.20392	-356.43622	63.30426	578.55286	-375.20929	11.17531	541.56720	582.97876	166.95815	535.08197	565.23511	
1895	18.940	-206.31367	24.65369	-209.95451	202.76900	13.22348	-272.06107	-70.87179	13.85211	413.46790	226.68141	22.13398	383.02939	-3.88674	1189.00671	-587.38544	-97.24292	577.96948	-357.42377	62.79196	577.74335	-375.82718	7.40059	543.76575	581.93518	163.00314	537.09668	565.41821	
1896	18.950	-208.56737	14.44243	-210.71593	202.42049	13.14616	-271.75107	-71.71579	14.58684	413.22702	224.67784	22.72579	383.97916	-3.53611	1187.82056	-590.37927	-98.33385	577.47028	-358.30103	61.15902	576.68604	-376.00598	3.24914	545.36731	581.66071	159.26553	538.64551	565.33807	
1897	18.960	-212.56541	12.47030	-214.36230	200.22406	12.34434	-271.67316	-73.06029	14.91523	412.81625	223.97774	23.57325	384.18033	-3.83313	1185.57617	-593.35126	-99.35341	578.41486	-359.03897	60.73864	576.79846	-376.09808	-1.00175	546.60980	581.37939	154.97626	538.97980	565.53052	
1898	18.970	-212.76788	13.13526	-212.43445	198.22258	13.52773	-272.48303	-74.76170	16.76124	411.82489	222.15787	24.64262	383.08517	-4.40103	1183.14111	-596.15021	-99.71152	580.35394	-359.75876	59.91264	578.17975	-376.19443	-4.79014	547.78961	581.00696	151.96391	540.66815	569.49762	
1899	18.980	-212.96628	11.95719	-212.70648	191.79892	16.26349	-270.01642	-76.68151	21.57594	412.25043	221.02943	24.24887	381.98572	-3.95891	1181.66895	-597.47308	-100.85555	581.41345	-360.30350	59.12744	579.27856	-376.31039	-8.49746	548.80969	580.37482	146.63136	541.95465	567.93823	
1900	18.990	-214.34052	12.19143	-215.10455	186.51512	19.69605	-265.99289	-75.19803	24.98098	414.92053	219.91705	25.50947	382.01266	-3.48926	1182.22266	-598.09900	-101.21554	581.52502	-360.93362	58.36563	579.01135	-376.04645	-12.37771	550.97412	580.15015	144.32164	543.72681	569.30078	
1901	19.000	-214.74561	11.44747	-214.11414	180.79863	26.30612	-262.38480	-74.78013	34.99422	416.57159	219.42430	26.63999	382.17447	-2.06237	1184.05969	-598.28302	-101.98133	580.96906	-361.54553	57.16339	578.15967	-376.59332	-15.27227	553.15112	580.27698	141.56175	546.15430	569.57080	
1902	19.010	-215.34673	10.82137	-214.41492	177.98714	33.99605	-259.88953	-77.36402	46.01236	416.83246	218.70905	27.10779	381.84784	-1.00320	1185.29175	-598.60522	-103.06557	579.77246	-362.02063	56.89635	577.45776	-376.46994	-18.72543	555.10181	579.74945	136.95142	547.38147	567.82458	
1903	19.020	-216.31711	10.25411	-215.17336	176.78471	44.65698	-258.88803	-80.28201	56.59543	418.73303	217.76570	27.49110	381.67239	0.52421	1185.22778	-599.62451	-103.97575	578.47644	-361.95572	55.86190	576.28497	-376.26459	-21.46578	556.34961	580.41577	134.42804	549.11096	567.99579	
1904	19.030	-217.44295	9.57731	-215.12805	178.27715	56.18444	-257.70319	-86.77361	70.24464	418.07196	216.95482	28.21305	381.69260	1.43773	1184.02795	-600.73029	-105.05904	577.68774	-361.73907	54.96740	575.45166	-375.99493	-23.87788	557.52209	580.26025	132.27010	550.34613	569.24841	
1905	19.040	-217.85033	9.29767	-215.19580	179.59201	68.19612	-256.39337	-93.41287	81.38305	418.19186	216.53329	28.74178	381.55072	1.39358	1181.54187	-602.79822	-105.91833	577.24719	-361.39120	53.84534	574.52460	-375.30966	-26.08098	558.35620	580.32135	129.83546	550.83533	569.14478	
1906	19.050	-219.00092	9.12297	-215.44304	180.34993	80.27340	-254.68372	-101.51369	94.41402	417.82040	216.17973	29.62543	381.37753	0.80816	1178.06360	-604.69269	-106.55740	576.74219	-361.12143	52.51401	573.82709	-375.00070	-28.01233	559.21545	580.96295	127.70965	551.10846	569.82745	
